<!DOCTYPE svg PUBLIC "-//W3C//DTD SVG 1.1//EN" "http://www.w3.org/Graphics/SVG/1.1/DTD/svg11.dtd">
<!-- Uploaded to: SVG Repo, www.svgrepo.com, Transformed by: SVG Repo Mixer Tools -->
<svg fill="#3465A4" height="800px" width="800px" version="1.1" id="Layer_1" xmlns="http://www.w3.org/2000/svg" xmlns:xlink="http://www.w3.org/1999/xlink" viewBox="0 0 512 512" xml:space="preserve" stroke="#3465A4">
<g id="SVGRepo_bgCarrier" stroke-width="0"/>
<g id="SVGRepo_tracerCarrier" stroke-linecap="round" stroke-linejoin="round"/>
<g id="SVGRepo_iconCarrier"> <g> <g> <path d="M268.8,362.667h-59.733c-2.355,0-4.267,1.911-4.267,4.267v8.533c0,2.355,1.911,4.267,4.267,4.267H268.8 c2.355,0,4.267-1.911,4.267-4.267v-8.533C273.067,364.578,271.155,362.667,268.8,362.667z"/> </g> </g> <g> <g> <path d="M132.267,362.667H72.533c-2.355,0-4.267,1.911-4.267,4.267v8.533c0,2.355,1.911,4.267,4.267,4.267h59.733 c2.355,0,4.267-1.911,4.267-4.267v-8.533C136.533,364.578,134.622,362.667,132.267,362.667z"/> </g> </g> <g> <g> <path d="M426.667,345.6c-9.114,0-17.613,4.907-22.187,12.8c-1.655,2.884-4.762,4.463-7.868,4.25 c-2.876-0.017-5.897-1.485-7.509-4.258c-4.565-7.885-13.065-12.791-22.17-12.791c-14.114,0-25.6,11.486-25.6,25.6 s11.486,25.6,25.6,25.6c9.114,0,17.613-4.907,22.187-12.8c1.502-2.603,4.258-4.224,7.27-4.267c0.034,0,0.077,0,0.119,0 c3.055,0,6.451,1.613,7.987,4.258c4.557,7.902,13.056,12.809,22.17,12.809c14.114,0,25.6-11.486,25.6-25.6 S440.781,345.6,426.667,345.6z"/> </g> </g> <g> <g> <path d="M115.857,220.903c-2.876-10.684-4.557-28.885-4.864-41.847c-0.06-2.304-1.971-4.122-4.275-4.122H8.533 c-4.71,0-8.533,3.823-8.533,8.533V217.6c0,4.71,3.823,8.533,8.533,8.533h103.219C114.5,226.134,116.565,223.557,115.857,220.903z"/> </g> </g> <g> <g> <path d="M121.19,115.2H25.6c-14.14,0-25.6,11.46-25.6,25.6v8.533c0,4.71,3.823,8.533,8.533,8.533H109.79 c2.014,0,3.703-1.434,4.113-3.405c2.372-11.597,6.11-22.699,11.068-33.126C126.327,118.477,124.356,115.2,121.19,115.2z"/> </g> </g> <g> <g> <path d="M503.467,243.2H390.707c-1.63,0-3.089,0.947-3.789,2.415c-23.322,48.947-73.182,82.918-130.918,82.918 s-107.597-33.971-130.918-82.918c-0.7-1.468-2.159-2.415-3.789-2.415H8.533c-4.71,0-8.533,3.823-8.533,8.533v179.2 c0,14.14,11.46,25.6,25.6,25.6h460.8c14.14,0,25.6-11.46,25.6-25.6v-179.2C512,247.023,508.177,243.2,503.467,243.2z M153.6,388.267c0,4.71-3.823,8.533-8.533,8.533H59.733c-4.71,0-8.533-3.823-8.533-8.533v-34.133c0-4.71,3.823-8.533,8.533-8.533 h85.333c4.71,0,8.533,3.823,8.533,8.533V388.267z M290.133,388.267c0,4.71-3.823,8.533-8.533,8.533h-85.333 c-4.71,0-8.533-3.823-8.533-8.533v-34.133c0-4.71,3.823-8.533,8.533-8.533H281.6c4.71,0,8.533,3.823,8.533,8.533V388.267z M468.224,381.065c-2.825,12.51-11.563,23.253-23.185,28.672c-16.009,7.467-33.348,4.335-45.457-5.589 c-1.647-1.357-3.908-1.357-5.555,0c-12.109,9.933-29.449,13.056-45.457,5.589c-11.622-5.419-20.361-16.162-23.185-28.672 c-6.272-27.793,14.805-52.531,41.549-52.531c10.001,0,19.55,3.541,27.085,9.719c1.656,1.357,3.917,1.357,5.564,0 c7.535-6.178,17.084-9.719,27.085-9.719C453.41,328.534,474.487,353.272,468.224,381.065z"/> </g> </g> <g> <g> <path d="M486.4,115.2h-95.59c-3.166,0-5.137,3.277-3.78,6.135c4.958,10.419,8.695,21.53,11.068,33.126 c0.41,1.971,2.099,3.405,4.113,3.405H512V140.8C512,126.661,500.54,115.2,486.4,115.2z"/> </g> </g> <g> <g> <path d="M503.467,174.934h-98.185c-2.304,0-4.207,1.818-4.267,4.122c-0.307,12.971-1.988,31.164-4.864,41.847 c-0.717,2.654,1.357,5.231,4.096,5.231h103.219c4.71,0,8.533-3.823,8.533-8.533v-34.133 C512,178.757,508.177,174.934,503.467,174.934z"/> </g> </g> <g> <g> <path d="M382.95,166.827c-7.194-57.054-53.265-103.117-110.31-110.31c-83.729-10.547-154.138,59.861-143.59,143.59 c7.194,57.054,53.257,103.117,110.31,110.31C323.089,320.973,393.506,250.556,382.95,166.827z M332.8,226.134 c0,14.14-11.46,25.6-25.6,25.6H204.8c-14.14,0-25.6-11.46-25.6-25.6v-51.2c0-14.14,11.46-25.6,25.6-25.6h4.267 c2.355,0,4.267-1.911,4.267-4.267V140.8c0-23.364,18.842-42.53,42.206-42.667c23.723-0.136,43.11,18.97,43.128,42.641 c0,0.58,0,1.792-0.009,4.275c0,2.355,1.911,4.284,4.267,4.284h12.809c9.429,0,17.067,7.637,17.067,17.067V226.134z"/> </g> </g> <g> <g> <path d="M307.2,166.4H204.8c-4.71,0-8.533,3.823-8.533,8.533v51.2c0,4.71,3.823,8.533,8.533,8.533h102.4 c4.71,0,8.533-3.823,8.533-8.533v-51.2C315.733,170.223,311.91,166.4,307.2,166.4z M267.383,200.047 c-1.698,0.597-2.85,2.167-2.85,3.968v5.052c0,4.642-3.712,8.661-8.337,8.533c-4.787-0.128-8.73-3.738-8.73-8.533v-5.052 c0-1.801-1.152-3.362-2.85-3.968c-3.311-1.178-5.683-4.335-5.683-8.047c0-4.71,3.814-8.533,8.533-8.533h17.067 c4.719,0,8.533,3.823,8.533,8.533C273.067,195.712,270.694,198.87,267.383,200.047z"/> </g> </g> <g> <g> <path d="M281.6,140.783v0.017C281.6,140.8,281.6,140.749,281.6,140.783z"/> </g> </g> <g> <g> <path d="M256.137,115.2c-14.14-0.017-25.737,11.46-25.737,25.6v4.267c0,2.355,1.911,4.267,4.267,4.267h42.65 c2.355,0,4.267-1.877,4.267-4.233c0-3.593,0.009-4.241,0.009-4.318C281.583,126.72,270.182,115.217,256.137,115.2z"/> </g> </g> </g>
</svg>